<?xml version="1.0" encoding="UTF-8"?>
<!DOCTYPE svg PUBLIC "-//W3C//DTD SVG 1.1//EN" "http://www.w3.org/Graphics/SVG/1.1/DTD/svg11.dtd">
<!-- Creator: CorelDRAW 2021 (64-Bit) -->
<svg xmlns="http://www.w3.org/2000/svg" xml:space="preserve" width="300px" height="60px" version="1.1" style="shape-rendering:geometricPrecision; text-rendering:geometricPrecision; image-rendering:optimizeQuality; fill-rule:evenodd; clip-rule:evenodd"
viewBox="0 0 300 60"
 xmlns:xlink="http://www.w3.org/1999/xlink"
 xmlns:xodm="http://www.corel.com/coreldraw/odm/2003">
 <defs>
  <style type="text/css">
   <![CDATA[
    .fil0 {fill:#2A7AE4}
    .fil1 {fill:#464646}
   ]]>
  </style>
 </defs>
 <g id="Capa_x0020_1">
  <metadata id="CorelCorpID_0Corel-Layer"/>
  <g id="_1672079406768">
   <path class="fil0" d="M58.5 26.95c3.94,-2.01 6.81,4.36 2.65,6.18 -1.92,0.84 -3.98,-0.33 -4.55,-1.87 -0.84,-2.29 0.55,-3.62 1.9,-4.31zm-29.45 -10.59l3.44 0.03 0.15 6.78 6.67 0 -0.01 3.41 -6.79 -0.01 -0.01 6.81 -3.44 0.04 -0.07 -6.84 -6.74 -0.05 0 -3.35 6.79 -0.02 0.01 -6.8zm22.81 0.27c4.2,-1.67 6.46,4.87 2.3,6.32 -2.15,0.75 -4,-0.58 -4.45,-2.19 -0.53,-1.89 0.32,-3.4 2.15,-4.13zm-24.37 -10.52c-7.28,0 -12.54,5.06 -13.67,11.29 -1.28,6.99 -2.08,14.58 -3.09,21.64 -0.52,3.63 -1.47,7.12 0.27,10.35 1.27,2.34 3.81,4.55 7.78,4.5 4.1,-0.06 6.07,-2.6 7.88,-4.41l4.75 -4.64c0.54,-0.56 0.82,-1.17 1.8,-1.17l19.01 0c1.19,0 2.14,1.39 3.46,2.72 3.46,3.45 6.29,7.42 10.98,7.5 3.75,0.06 6.51,-2.14 7.79,-4.48 1.76,-3.19 0.8,-6.68 0.27,-10.4 -1.02,-7.12 -1.85,-14.58 -3.08,-21.62 -1.08,-6.18 -6.42,-11.28 -13.46,-11.28l-30.69 0z"/>
   <path class="fil1" d="M211.59 41.61l0.05 3.15 4.59 -0.01 0.09 -14.94c-1.95,0 -9.22,-0.26 -10.54,0.17 0,0.83 -0.01,1.66 -0.02,2.49 -0.02,2.04 -0.39,1.46 5.86,1.46 0,2.44 0.12,2.65 -3,4.68 -5.3,3.44 -12.53,0.15 -13.16,-7.34 -0.41,-4.8 1.87,-8.76 5.05,-10.16 3.36,-1.47 7.64,-0.31 9.81,2.56 0.3,0.4 0.43,0.73 0.84,1.13 0.68,-0.4 3.55,-2.34 4.07,-3.12 -1.44,-2.29 -2.76,-3.94 -5.57,-5.13 -8.02,-3.42 -17.87,1.19 -19.66,10.53 -1.82,9.56 4.97,18.11 13.83,17.87 4.31,-0.12 5.54,-1.81 7.76,-3.34z"/>
   <path class="fil0" d="M93.22 33.53c0.22,-1.49 1.45,-4.17 1.99,-5.73 0.34,-0.99 1.52,-4.72 2.17,-5.47l3.82 11.2 -7.98 0zm-1.08 3.99l10.2 0 2.74 7.22 5.75 -0.02 -10.97 -29.04 -5.08 0.01 -10.98 29.07 5.71 -0.01 2.63 -7.23z"/>
   <path class="fil1" d="M281.68 32.44c0.25,-0.53 3.29,-4 3.88,-4.61l3.9 -4.51c-6.76,-0.08 -5.23,-0.61 -7.79,2.22 -1.48,1.63 -5.36,6.44 -6.55,7.29l-0.05 -18 -5.44 0.05c-0.07,5.53 -0.24,25.48 0.03,29.86l5.38 0.01c0.23,-1.84 -0.18,-4.47 0.1,-6.09 0.15,-0.9 2.26,-2.75 2.9,-3.07 0.25,0.23 -0.03,-0.07 0.36,0.37l5.89 8.79 5.71 0c-0.4,-1.35 -7.57,-10.66 -8.32,-12.31z"/>
   <path class="fil1" d="M249.49 32.13c1.03,-7.25 10.43,-6.78 11.12,0.09l-11.12 -0.09zm0.12 3.64c4.28,0 8.57,0 12.85,0 3.29,0 3.98,0.91 3.81,-2.4 -0.24,-4.78 -3.31,-9.13 -8.5,-10.2 -12.7,-2.61 -18.55,12.48 -10.1,19.48 5.7,4.73 15.33,2.33 17.33,-3.14l-4.6 -1.19c-1.04,1.25 -0.7,1.5 -2.59,2.3 -3.43,1.46 -7.75,-0.09 -8.2,-4.85z"/>
   <path class="fil1" d="M224.97 32.14c0.91,-7.33 10.59,-6.69 11.13,0.08l-11.13 -0.08zm16.57 3.63c1.24,-4.94 -2.06,-11.15 -8.1,-12.55 -6.83,-1.58 -12.03,2.24 -13.61,7.12 -2.1,6.49 1.46,12.05 5.87,13.89 6.01,2.52 12.96,-0.26 14.78,-4.71l-4.59 -1.19c-1.03,1.21 -0.76,1.46 -2.59,2.29 -3.16,1.43 -7.77,0.08 -8.21,-4.85l16.45 0z"/>
   <path class="fil0" d="M180.3 35.65c0,1.74 0.4,3.9 -3.01,5.06 -6.21,2.1 -8.51,-4.31 -3.39,-5.91 1.43,-0.44 5.57,-0.43 6.4,0.85zm-11.51 -6.66c2.43,-0.85 3.54,-2.49 7.32,-2.25 3.38,0.23 4.19,2.15 4.19,5.56 -3.66,-0.87 -6.79,-1.5 -10.31,0.19 -7.06,3.39 -4.37,12.57 3.15,12.67 3.89,0.05 6.43,-1.91 7.96,-3.73 0.47,3.59 2.25,4.11 5.97,3.31l0.01 -4.28c-0.48,-0.98 -0.8,-0.02 -1.21,-1.26 -0.82,-2.45 1.79,-10.7 -3.23,-14.43 -2.05,-1.51 -4.94,-2.07 -8.01,-1.79 -3.75,0.34 -4.81,1.45 -7.58,2.58l1.74 3.43z"/>
   <path class="fil0" d="M126.31 23.4c0,4.63 -0.19,9.68 0.01,14.26 0.39,8.51 7.6,8.6 12.01,6.23 1.81,-0.97 2.44,-2.12 3.4,-2.99 0.19,3.95 1.76,4.54 5.93,3.84l0.03 -3.82c0,-1.73 -1.31,-0.18 -1.31,-2.75l0 -14.89 -5.5 0.03c0,2.66 0,5.33 0,7.99 0,2.81 0.5,5.3 -1.06,6.99 -1.14,1.24 -3.2,2.8 -5.7,2.02 -2.02,-0.63 -2.34,-2.94 -2.34,-5.35l0 -11.68c-1.7,0 -3.84,-0.13 -5.47,0.12z"/>
   <path class="fil0" d="M113.47 14.91c-0.2,6.89 -0.02,14.05 -0.02,20.97 0,3.59 -0.45,6.85 2.1,8.36 2.14,1.27 6.47,1.08 8.54,-0.3l-0.74 -4.07c-2.7,0.78 -4.36,0.86 -4.4,-2.38 -0.1,-6.81 0.37,-16.68 -0.04,-22.66l-5.44 0.08z"/>
   <path class="fil0" d="M156.91 27.61l-0.06 -4.3 -5.03 -0.03 0 21.47 5.44 0c0.35,-3.45 0.02,-8.27 0.04,-11.86 0.02,-3.73 4.25,-4.51 7.27,-4.9l0.05 -4.89c-4.36,-0.75 -6.52,3.3 -7.71,4.51z"/>
  </g>
 </g>
</svg>
