<?xml version="1.0" encoding="UTF-8"?>
<!DOCTYPE svg PUBLIC "-//W3C//DTD SVG 1.1//EN" "http://www.w3.org/Graphics/SVG/1.1/DTD/svg11.dtd">
<!-- Creator: CorelDRAW 2021 (64-Bit) -->
<svg xmlns="http://www.w3.org/2000/svg" xml:space="preserve" width="300px" height="300px" version="1.1" style="shape-rendering:geometricPrecision; text-rendering:geometricPrecision; image-rendering:optimizeQuality; fill-rule:evenodd; clip-rule:evenodd"
viewBox="0 0 300 300"
 xmlns:xlink="http://www.w3.org/1999/xlink"
 xmlns:xodm="http://www.corel.com/coreldraw/odm/2003">
 <defs>
  <style type="text/css">
   <![CDATA[
    .fil0 {fill:#FEFEFE}
   ]]>
  </style>
 </defs>
 <g id="Capa_x0020_1">
  <metadata id="CorelCorpID_0Corel-Layer"/>
  <g id="_2042700736304">
   <path class="fil0" d="M70.42 114.49l69.57 -69.34c2.21,-2.23 7.83,-8.88 10.31,-9.86l69.37 69.17c3.23,3.2 6.47,5.82 9.84,9.89 -0.42,2.22 -16.36,17.35 -19.1,20.05l-60.11 59.85c-2.42,-0.96 -17.18,-16.55 -20.25,-19.59l-59.63 -60.17zm164.33 2.89c2.6,-5.37 -4.86,-10.98 -7.38,-13.33 -15.56,-14.54 -37.55,-37.28 -53.24,-53 -24.92,-24.94 -21.65,-27.01 -34.55,-13.59 -17.03,17.71 -35.79,35.44 -53.1,53.14 -3,3.07 -20.22,19.55 -21.1,21.4 -2.78,5.82 4.26,10.24 7.19,13.31 3.58,3.73 6.99,6.91 10.66,10.57 7.24,7.21 14.03,14.01 21.25,21.25 7.21,7.21 13.95,14.13 21.24,21.25 23.46,22.93 21.99,27.87 34.97,13.74 2.91,-3.16 6.68,-6.94 10.57,-10.67 9.86,-9.42 23.1,-23.7 31.87,-31.89 4.41,-4.12 6.75,-7.13 10.65,-10.59 2.97,-2.63 19.88,-19.36 20.97,-21.59z"/>
   <path class="fil0" d="M154.61 114.83c0.8,2.2 29.47,30.79 31.5,31.63 2.92,-2.26 30.16,-29.44 31.03,-31.51l-23.32 -23.49c-2.23,-2.23 -5.47,-6.47 -8.47,-7.57l-30.74 30.94z"/>
   <path class="fil0" d="M118.69 78.97c0.71,1.82 29.28,30.84 31.86,31.87 2.88,-4.75 28.81,-27.52 30.78,-31.86 -5.45,-4.4 -27.54,-29.24 -31.84,-30.85l-30.8 30.84z"/>
   <path class="fil0" d="M118.67 151.15c0.33,0.46 0.2,1.12 1.78,2.78 0.69,0.73 1.11,1.07 1.83,1.78 6.74,6.72 22.51,23.17 27.41,27.29 2.42,-1.18 13.32,-12.8 16.08,-15.54 2.85,-2.81 14.28,-13.42 15.46,-16.15l-30.85 -30.84c-3.23,1.21 -28.39,28.49 -31.71,30.68z"/>
   <path class="fil0" d="M82.63 114.79c1.5,2.74 30.16,30.59 31.24,31.58 2.18,-1.15 30.41,-29.39 31.38,-31.42 -4.47,-5.4 -10.35,-10.48 -15.31,-15.47 -1.56,-1.58 -13.92,-14.54 -16.07,-15.62l-31.24 30.93z"/>
   <polygon class="fil0" points="270.32,270.29 276.36,270.29 276.52,241.31 283.04,270.36 289.94,270.37 290,221.31 284.49,221.29 284.13,252.97 277.64,221.44 270.58,221.28 "/>
   <path class="fil0" d="M233.4 264.35c-0.58,-2.63 -0.86,-35.29 0.03,-36.62 0.67,-1.01 2.98,-1.33 4.3,-0.51 1.65,1.02 1.12,2.49 1.12,4.9 0.01,10.7 0.58,21.97 -0.41,32.57l-5.04 -0.34zm-6.57 2.37c1.73,4.64 9.47,4.27 13.32,3.67 1.96,-0.31 4.18,-2.52 4.74,-3.89 1.19,-2.88 0.33,-40.69 0.01,-41.48 -2.23,-5.43 -15.95,-5.51 -18.01,0 -0.93,2.49 -0.22,41.28 -0.06,41.7z"/>
   <path class="fil0" d="M152.86 242.44c-1.65,-2.39 -0.95,-13.8 -0.65,-14.47 0.93,-2.02 3.49,-1.67 4.09,0.54 0.28,1.01 0.14,5.62 0.21,7.27l6.37 -0.14c0.34,-6.41 0.99,-11.97 -3.89,-13.97 -2.13,-0.87 -11.02,-1.8 -13.21,3.5 -0.74,1.79 -0.65,14.67 -0.42,17.3 0.67,7.54 8.44,5.1 11.29,6.74l-0.28 14.93c-6.16,3.04 -3.99,-3.9 -4.62,-8.14l-6.22 -0.06c-2.73,12.37 1.8,15.53 12.08,14.49 7.92,-0.81 5.79,-11.84 5.63,-20.75 -0.16,-8.43 -7.69,-6.46 -10.38,-7.24z"/>
   <path class="fil0" d="M110.45 270.41c0.25,-4.87 -0.08,-9.79 0.09,-14.63 0.23,-6.62 7.48,-29.34 6.93,-34.48l-6.39 0.14c-1.24,5.18 -2.02,16.91 -4.02,20.48l-3.31 -20.49 -6.79 -0.04c-0.18,3.43 3.89,18.76 4.91,23.28 2.44,10.7 1.81,14.46 2.25,25.72l6.33 0.02z"/>
   <polygon class="fil0" points="16.61,227.04 25.28,226.95 25.14,221.34 10,221.36 10.06,270.45 25.68,270.18 25.63,264.93 16.51,264.55 16.55,248.11 25.45,247.95 25.39,242.43 16.67,242.36 16.56,230.9 "/>
   <path class="fil0" d="M54.57 270.4l14.81 -0.32 -0.13 -5.12 -7.71 -0.52 -0.46 -1.44c-0.66,-3.54 0.68,-35.13 -0.31,-41.65l-6.19 0.17 -0.01 48.88z"/>
   <polygon class="fil0" points="191.01,270.26 197.51,270.35 197.57,221.42 191.23,221.36 "/>
  </g>
 </g>
</svg>
