<?xml version="1.0" encoding="UTF-8"?>
<!DOCTYPE svg PUBLIC "-//W3C//DTD SVG 1.1//EN" "http://www.w3.org/Graphics/SVG/1.1/DTD/svg11.dtd">
<!-- Creator: CorelDRAW 2021 (64-Bit) -->
<svg xmlns="http://www.w3.org/2000/svg" xml:space="preserve" width="200px" height="200px" version="1.1" style="shape-rendering:geometricPrecision; text-rendering:geometricPrecision; image-rendering:optimizeQuality; fill-rule:evenodd; clip-rule:evenodd"
viewBox="0 0 200 200"
 xmlns:xlink="http://www.w3.org/1999/xlink"
 xmlns:xodm="http://www.corel.com/coreldraw/odm/2003">
 <defs>
  <style type="text/css">
   <![CDATA[
    .fil0 {fill:#2A7AE4}
   ]]>
  </style>
 </defs>
 <g id="Capa_x0020_1">
  <metadata id="CorelCorpID_0Corel-Layer"/>
  <path class="fil0" d="M143.36 91.61c10.83,-5.52 18.73,11.99 7.29,16.99 -5.28,2.31 -10.95,-0.9 -12.52,-5.14 -2.31,-6.29 1.52,-9.95 5.23,-11.85l0 0zm-80.98 -29.12l9.46 0.09 0.41 18.64 18.34 0 -0.02 9.37 -18.67 -0.02 -0.03 18.72 -9.46 0.11 -0.19 -18.81 -18.53 -0.13 0 -9.21 18.67 -0.06 0.02 -18.7 0 0zm62.72 0.75c11.55,-4.6 17.77,13.39 6.33,17.37 -5.92,2.07 -11,-1.59 -12.24,-6.02 -1.46,-5.19 0.88,-9.35 5.91,-11.35l0 0zm-67.01 -28.93c-20.01,0 -34.48,13.91 -37.58,31.04 -3.52,19.22 -5.72,40.09 -8.5,59.51 -1.43,9.98 -4.04,19.57 0.74,28.45 3.49,6.44 10.48,12.52 21.39,12.38 11.28,-0.17 16.69,-7.15 21.67,-12.13l13.06 -12.76c1.49,-1.54 2.26,-3.21 4.95,-3.21l52.27 0c3.27,0 5.89,3.82 9.52,7.48 9.51,9.48 17.29,20.4 30.19,20.62 10.31,0.16 17.9,-5.89 21.42,-12.32 4.84,-8.77 2.2,-18.37 0.74,-28.6 -2.81,-19.57 -5.09,-40.09 -8.47,-59.45 -2.97,-16.99 -17.65,-31.01 -37.01,-31.01l-84.39 0 0 0z"/>
 </g>
</svg>
