<?xml version="1.0" encoding="UTF-8"?>
<!DOCTYPE svg PUBLIC "-//W3C//DTD SVG 1.1//EN" "http://www.w3.org/Graphics/SVG/1.1/DTD/svg11.dtd">
<!-- Creator: CorelDRAW 2021 (64-Bit) -->
<svg xmlns="http://www.w3.org/2000/svg" xml:space="preserve" width="300px" height="300px" version="1.1" style="shape-rendering:geometricPrecision; text-rendering:geometricPrecision; image-rendering:optimizeQuality; fill-rule:evenodd; clip-rule:evenodd"
viewBox="0 0 300 300"
 xmlns:xlink="http://www.w3.org/1999/xlink"
 xmlns:xodm="http://www.corel.com/coreldraw/odm/2003">
 <defs>
  <style type="text/css">
   <![CDATA[
    .fil0 {fill:#FEFEFE}
   ]]>
  </style>
 </defs>
 <g id="Capa_x0020_1">
  <metadata id="CorelCorpID_0Corel-Layer"/>
  <path class="fil0" d="M10 165.2l13.72 -0.07 -0.15 -64.02c2.84,1.44 2.36,2.16 4.61,3.49 2.22,-1.61 2.26,-2.44 4.73,-3.61l0.22 64.19 14.91 0.26 -0.17 -87.45c-4.36,1.5 -16.08,8.99 -19.01,8.79 -3.16,-0.22 -14.49,-7.97 -18.7,-8.58l-0.16 87zm242.47 -50.25l26.45 15.22c-3.04,1.52 -2.07,-1.15 -2.58,2.76l-0.02 17.92 -9.75 0.24 -0.26 -20.18 -13.17 -0.1 0.01 34.05 36.47 -0.02 0.03 -42.17c-1.7,-1.85 -19.81,-13.73 -22.66,-15.15l-0.05 -15.74 9.42 0.01 0.22 13.38 13.42 0.05 -0.14 -26.76 -37.57 -0.25 0.18 36.74zm-162.03 16.17l-13.34 -0.12 0.37 33.59 36.36 -0.21 -0.2 -42.01c-6.42,-5.06 -18.23,-11.46 -22.58,-15.09l-0.07 -15.31 9.38 -0.25 0.28 13.29 13.38 0.22 -0.16 -26.9 -37.55 -0.11 0.22 36.42c0.4,0.97 25.66,15.06 26.43,15.38 -2.6,1.58 -1.37,-0.49 -2.53,1.77l-0.03 19.18 -9.88 0.06 -0.08 -19.91zm52.76 19.61c-0.11,0.13 -0.34,0.09 -0.43,0.29 -0.09,0.2 -0.32,0.21 -0.45,0.25 -2.44,0.66 1.19,-0.05 -1.09,0.26l-8.21 -0.56 -0.2 -19.78 -12.94 -0.17 0.27 33.71 36.37 0.14 -0.23 -42.2c-1.84,-1.81 -20.29,-14.17 -22.58,-14.97l-0.1 -15.98 9.35 0.03 0.35 13.14 13.36 0.36 -0.16 -26.95 -37.53 -0.09 0.16 36.56 26.38 15.29c-0.08,-0.02 -0.31,-0.07 -0.38,0.13 -0.27,0.79 -0.22,-0.02 -1.99,0.99l0.05 19.55zm43.34 14.68l36.39 -0.12 -0.06 -23.55c-2.41,-1.85 -10.26,-5.98 -13.18,-7.07l-0.22 15.89 -9.31 -0.02 -0.15 -72.66 -13.37 -0.14 -0.1 87.67zm-132.74 -65.38l-3.12 -1.13 -0.1 15.22 6.92 2.67c-0.03,-0.02 -2.5,0.08 -2.73,3.38l-0.13 18.91c-0.05,8.38 -0.26,17.31 0.08,25.65l13.28 -0.03 -0.09 -42.28 4.15 1.55 0.09 -14.66 -3.8 -2.24c-0.5,-0.66 -0.42,-0.21 -0.69,-1.42l0.06 -27.02 -12.81 0.04c0.18,4.67 0.79,18.2 -0.12,22.15l-0.99 -0.79zm175.02 -0.04l-3.13 -1.1 -0.09 15.22c2.62,0.67 5.7,2.07 7.74,3.27l-3.42 0.29 -0.3 47.05 13.43 -0.06 -0.15 -42.32 4.18 1.61 0.09 -14.64 -3.79 -2.26c-1.36,-2.15 -0.68,-11.54 -0.68,-14.15 0,-4.77 0.03,-9.52 0.09,-14.28l-12.84 0.08c0.25,4.67 0.92,18.2 -0.17,22.15l-0.96 -0.86zm-64.28 17.82l-0.26 46.54 12.88 0 0.02 -42.19c2.15,-0.12 0.46,-0.16 1.14,0.56l3.04 1.27 0.11 -14.68 -4.19 -2.63 0 -28.21 -13.03 0 -0.19 21.99 -4.03 -1.58 -0.13 15.28c2.65,0.69 5.2,1.58 7.34,3.05l-2.7 0.6zm-120.06 74.02c1.75,2.59 7.04,23.07 10.1,29.64l4.07 0 0.01 -43.72 -4.18 0.26 -0.09 28.67 -1.45 -3.68c-1.52,-5.28 -6.46,-22.82 -8.36,-25.24l-4.41 0.31 0.04 43.33 4.14 -0.06 0.13 -29.51zm41.02 22.43l-0.14 -29.02c9.07,-1.24 9.66,6.63 9.64,14.6 -0.03,8.28 -0.35,14.93 -9.5,14.42zm-4.69 7.22c8.09,0.13 12.29,0.82 15.65,-5.01 2.67,-4.64 3.18,-11.27 3.15,-17.24 -0.1,-20.72 -6.11,-21.55 -18.8,-21.44l0 43.69zm156.4 -36.78c5.44,-0.13 8.19,-0.11 8.22,6.02 0.03,6.38 -2.62,6.31 -8.35,6.12l0.13 -12.14zm8.48 17.56c1.51,-1.96 3.35,-3.55 3.99,-7.5 0.52,-3.22 0.36,-7.53 -0.52,-10.57 -2.22,-7.62 -8.12,-6.4 -16.51,-6.42l-0.01 43.72 4.45 -0.22 0 -17.45c5.18,-0.12 3.98,-0.85 6.52,8.52 0.78,2.89 1.49,6.06 2.47,9.09l4.74 0.02 -5.13 -19.19zm-125.26 -24.46c-0.05,8.95 -0.07,17.94 -0.02,26.9 0.04,7.55 1,17.72 9.23,17.56 8.21,-0.16 9.16,-9.81 9.18,-17.56 0.02,-8.95 0.03,-17.9 -0.02,-26.88l-4.36 -0.01c-0.15,7.51 -0.04,15.12 -0.04,22.63 0,5.21 1.21,16.93 -6.57,14.23 -4.14,-2.49 -2.87,-11.72 -2.87,-17.27 0,-6.45 0.18,-13.17 -0.06,-19.6l-4.47 0zm38.86 33.42c1.95,17.35 21.07,13.39 16.83,-6.84 -1.46,-6.95 -7.35,-8.07 -10.41,-12.05 -1.69,-2.2 -2.26,-7.05 0.67,-8.1 3.79,-1.37 4.39,2.93 5.8,4.89 1.93,-0.86 1.9,-1.28 3.71,-1.95 -1.36,-13.93 -16.61,-13.25 -15.92,2.96 0.3,7.24 2.94,9.42 7.16,12.31 3.76,2.57 7.59,5.34 3.49,12.12 -5.9,1.43 -5.06,-1.92 -7.55,-5.71 -1.72,0.85 -1.99,1.53 -3.78,2.37zm118.36 -16.28l-4.61 -17.07 -4.45 -0.1c0.92,6.11 3.71,14.36 5.31,20.56 3.26,12.65 0.52,13.59 1.78,23.19l4.23 -0.24c0.74,-9.39 -0.76,-13.67 1.76,-23.2 1.61,-6.05 4.22,-14.19 5.11,-20.35l-4.24 0.18 -4.89 17.03zm-82.33 -9.99l6.27 0.01 0.03 36.39 4.32 0.16 0.22 -36.46 6.23 -0.17 0.18 -6.65c-3.2,-1.06 -13.45,-0.53 -17.33,-0.38l0.08 7.1zm-181.87 -7.14c-0.79,2.41 -0.72,39.37 -0.22,43.7l4.38 -0.2 -0.25 -43.5 -3.91 0zm164.87 -55.09c-0.68,-0.72 1.01,-0.68 -1.14,-0.56l-0.02 42.19 -12.88 0 0.26 -46.54c-1.32,2.46 -1.76,44.28 -0.36,46.88l13.05 0.19c1.81,-3.86 -0.37,-31.47 0.28,-39.82 0.27,-3.45 -0.16,-1.33 0.81,-2.34zm-64.49 41.66l-36.36 0.21 -0.37 -33.59 13.34 0.12c-0.15,-0.08 -0.37,-0.38 -0.46,-0.23l-13.18 -0.27 0.14 34.24c2.86,0.68 22.16,0.24 27.8,0.26l7.31 0.02c2.09,-0.3 0.82,0.12 1.78,-0.76zm114.99 -64.39l0.96 0.86c1.09,-3.95 0.42,-17.48 0.17,-22.15l12.84 -0.08c-0.06,4.76 -0.09,9.51 -0.09,14.28 0,2.61 -0.68,12 0.68,14.15l-0.11 -28.6c-3.05,-0.84 -11.02,-1.05 -13.65,0.17 -0.38,3.46 -0.09,7.12 -0.05,10.64l0.15 8.55c-0.27,3.4 0.27,1.27 -0.9,2.18zm-108.67 64.74l-0.27 -33.71 12.94 0.17 0.2 19.78 8.21 0.56c2.28,-0.31 -1.35,0.4 1.09,-0.26 0.13,-0.04 0.36,-0.05 0.45,-0.25 0.09,-0.2 0.32,-0.16 0.43,-0.29l-9.75 0.23c-0.08,-5.15 0.61,-15.75 -0.43,-20.11l-13.5 -0.36c-0.61,4.04 -0.03,12.79 0.03,17.09 0.03,2.72 -0.6,14.82 0.6,17.15zm-66.35 -64.7l0.99 0.79c0.91,-3.95 0.3,-17.48 0.12,-22.15l12.81 -0.04 -0.06 27.02c0.27,1.21 0.19,0.76 0.69,1.42l-0.12 -28.61c-2.99,-0.89 -10.94,-1.02 -13.63,0.13 -0.67,5.32 0.34,15.46 0.07,19.22 -0.25,3.63 0.31,1.25 -0.87,2.22z"/>
 </g>
</svg>
