<?xml version="1.0" encoding="UTF-8"?>
<!DOCTYPE svg PUBLIC "-//W3C//DTD SVG 1.1//EN" "http://www.w3.org/Graphics/SVG/1.1/DTD/svg11.dtd">
<!-- Creator: CorelDRAW 2021 (64-Bit) -->
<svg xmlns="http://www.w3.org/2000/svg" xml:space="preserve" width="500px" height="500px" version="1.1" style="shape-rendering:geometricPrecision; text-rendering:geometricPrecision; image-rendering:optimizeQuality; fill-rule:evenodd; clip-rule:evenodd"
viewBox="0 0 500 500"
 xmlns:xlink="http://www.w3.org/1999/xlink"
 xmlns:xodm="http://www.corel.com/coreldraw/odm/2003">
 <defs>
  <style type="text/css">
   <![CDATA[
    .fil3 {fill:#3799C3}
    .fil2 {fill:#389AC4}
    .fil0 {fill:#45B2E1}
    .fil5 {fill:#88BBD4}
    .fil4 {fill:#A5CADC}
    .fil1 {fill:white}
   ]]>
  </style>
 </defs>
 <g id="Capa_x0020_1">
  <metadata id="CorelCorpID_0Corel-Layer"/>
  <g id="_1911212512304">
   <path class="fil0" d="M281.83 483.9c0.44,-1.19 -0.22,-1.32 -0.8,-1.71 -1.3,-0.87 -0.74,-0.69 -1.84,-1.65 -0.55,-0.48 -0.66,-0.6 -1.14,-1.09 -1.54,-1.55 -3.38,-3.12 -4.54,-4.65 -1.74,-2.29 -0.44,-0.72 -2.25,-2.13l-29.44 -28.99c-1.56,-1.39 -2.89,-3.1 -4.52,-4.64l-7.87 -7.59c-0.67,-0.65 -0.62,-0.81 -1.13,-1.4 -0.65,-0.76 -1.45,-1.47 -2.27,-2.16l-6.88 -6.69c-1.98,-1.65 -7.18,-7.97 -9.39,-8.62 0.08,-1.41 -0.1,-0.16 0.58,-0.79 -0.59,-0.98 -1.11,-1.1 -2.02,-1.87 -2.28,-1.94 -3.62,-3.76 -5.26,-6.09 -1.8,-2.53 -4.13,-7.75 -4.46,-11.22l-0.5 -0.52c-0.38,-0.48 -0.23,-0.19 -0.49,-0.79 -0.63,-1.43 -0.77,-5.62 -0.77,-7.27 -0.01,-3.55 0,-7.09 0,-10.64 -0.91,2.71 0.67,9.42 -0.58,13.08 -0.31,0.9 -0.23,0.92 -0.23,1.99l-5.09 0 0 -1.26 -5.05 0c0,1.56 -0.03,0.51 -0.29,0.92l0 -1.58 -3.49 0c-0.38,-0.89 -0.46,-0.24 -1.66,-1.17 -1.02,-0.8 -0.53,-1.13 -1.29,-1.86 -1.06,-1.03 0.36,0.87 -2.28,-2.15 -0.88,-1.01 -0.68,-0.17 -2.33,-2.08l-7.84 -7.64c-1.03,-1.04 -1.97,-1.82 -3.03,-2.96l-6.21 -6.12c-4.27,-4.14 -8.15,-8.24 -12.28,-12.03 -3.07,-2.8 -7.06,-7.23 -10.65,-10.51 -0.59,-0.55 -0.89,-0.96 -1.55,-1.6l-7.44 -7.42c-2.81,-2.42 -13.66,-13.73 -16.9,-16.87 -2.06,-2.01 -23.34,-23.61 -24.8,-24.16 0.45,-0.4 -0.08,-0.17 0.81,-0.15l-0.94 -1c-2.87,-2.53 -2.88,-2 -6.05,-6.25 -2.59,-3.46 -5.39,-10.79 -5.64,-15.08 -0.31,-5 -0.09,-15.8 -0.09,-21.14 0,-13.5 -1.1,-23.18 8.8,-33.16 10.28,-10.37 20.48,-8.9 33.16,-8.91 9.37,-0.01 18.74,-0.01 28.11,0l42 0c2.31,0 4.63,-0.01 6.94,-0.01 8.91,0 7.2,3.36 7.21,-13.81l0 -42c0,-4.05 -0.32,-39.3 0.18,-41.51 0.4,-1.77 0.58,-4.05 1.02,-6.12 0.32,-1.5 1.61,-3.78 2.22,-4.89 5.05,-9.24 14.61,-15.81 25.35,-16.2 4.61,-0.17 9.58,0 14.23,0 15.28,0 24.48,-1.96 35.79,5.81 1.32,0.91 2.65,2.13 3.75,3.18 0.49,0.47 1.07,1.04 1.62,1.81 0.82,1.14 0.62,1.21 1.89,2.1 0.18,-0.13 0.12,-0.68 1.46,0.86 0.69,0.8 0.66,1.09 1.44,1.75 5,4.24 15.9,16.23 21.98,21.9l25 25.22c2.18,2.02 4.01,4.45 6.2,6.42l9.72 9.52c0.05,0.05 0.11,0.12 0.16,0.17l1.36 1.19c1.36,1.31 1.95,2.42 4.65,4.83l9.45 9.21c1.96,1.54 1.43,1.91 2.87,3.4 1.28,1.31 1.92,1.67 3.13,3.17l7.86 7.95c0.8,0.72 0.75,1.03 1.47,1.69 1.84,1.68 1.9,0.67 1.96,4.06l2.23 0.01c0.77,1.01 0.23,0.65 1.69,1.75 2.35,1.76 1.27,0.59 2.33,1.75l4.36 4.8c1.37,1.37 0.23,-0.35 2.49,2.24 0.24,0.28 0.53,0.52 0.84,0.78 0.56,0.46 1.07,1.01 1.76,0.95 -2.07,0.06 -4.21,-2.25 -6.87,-1.71l1.31 0.73c5.51,2.11 7.8,1.88 13.35,7.51l3.85 4.2 14.19 13.74c0.8,0.78 1.54,1.55 2.35,2.41l7.1 7.1c1.48,1.43 3.21,3.05 4.73,4.73l21.26 21.4c2.11,2.64 5.47,5.22 7.11,7.09l5.06 5.31c0.26,0.19 0.52,0.41 0.72,0.58l4.67 4.81c0.57,0.59 0.71,0.67 1.3,1.22 0.99,0.91 1.55,1.51 2.37,2.36 1.35,1.39 3.42,3.76 4.87,4.7 2.59,-6.88 4.02,-34.43 4.01,-42.93 -0.03,-26.97 -5.13,-55.25 -14.33,-79.81 -16.64,-44.47 -42.99,-78.93 -80.69,-107.8 -9.24,-7.08 -18.46,-12.6 -28.85,-18.49 -20.18,-11.46 -45.83,-20.25 -69.2,-24.92 -76.42,-15.24 -157.82,8.34 -213.03,61.13 -30.25,28.92 -57.09,68.69 -68.4,120.07 -17.44,79.28 7.68,157.7 59.72,211.98 47.24,49.27 115.32,77.54 184.9,74.12 7.84,-0.38 14.3,-1.14 21.71,-1.89z"/>
   <path class="fil1" d="M84.66 289.82c1.34,0.24 5.11,3.42 10.39,4.44 4.96,0.96 8.79,0.76 14.12,0.76 7.06,-0.01 85.86,-0.34 88.9,0.11 0.35,2.27 0.11,20.58 0.11,24.48l-0.03 49.26c0.01,5.89 -0.65,18.94 0.45,23.74 0.33,3.47 2.66,8.69 4.46,11.22 1.64,2.33 2.98,4.15 5.26,6.09 0.91,0.77 1.43,0.89 2.02,1.87 3.69,0.79 4.79,5.65 20.4,5.61 8.84,-0.03 17.69,-0.02 26.52,0 7.85,0.03 13.99,-1.19 20.33,-6.13 4.06,-3.17 10.57,-11.33 10.54,-15.74 0.86,-7.57 0.94,-2.84 0.93,-12.13 -0.01,-4.21 -0.01,-8.42 0,-12.63 0.01,-8.42 -0.02,-16.84 0,-25.26 0.02,-15.1 0.26,-32.63 -0.01,-47.69 -0.06,-3.28 0.16,-2.48 0.57,-2.78 1.25,-0.71 46.01,-0.28 51.64,-0.27 8.73,0.02 17.48,0.02 26.21,0 4.32,0 8.63,0.02 12.95,0.01 2.21,0 4.42,-0.01 6.63,0 2.61,0.01 3.72,-0.68 5.86,-0.74 4.72,-0.1 12.6,-6.03 15.9,-10.13 3.99,-4.94 6.62,-11.13 6.61,-19.56 -0.01,-8.74 0,-17.47 0,-26.21 0,-4.1 0.15,-8.67 -1.1,-12.15 -0.46,-1.28 -1.18,-3.47 -1.82,-4.81 -0.8,-1.68 -1.91,-2.82 -2.24,-4.19l-3.85 -4.2c-5.55,-5.63 -7.84,-5.4 -13.35,-7.51l-1.31 -0.73 -0.53 0.27c-2.16,-0.06 -3.89,-0.42 -6.38,-0.41l-44.53 0.04c-15.84,0.11 -32.27,-0.18 -48,0.03 -3.62,0.05 -3.18,-0.28 -3.16,-3.6l0 -87.78c0,-6.85 0.11,-6.1 -1.25,-11.98 0.09,-2.83 -3.49,-7.04 -3.69,-8.48 -1.27,-0.89 -1.07,-0.96 -1.89,-2.1 -0.55,-0.77 -1.13,-1.34 -1.62,-1.81 -1.1,-1.05 -2.43,-2.27 -3.75,-3.18 -11.31,-7.77 -20.51,-5.81 -35.79,-5.81 -4.65,0 -9.62,-0.17 -14.23,0 -10.74,0.39 -20.3,6.96 -25.35,16.2 -0.61,1.11 -1.9,3.39 -2.22,4.89 -0.44,2.07 -0.62,4.35 -1.02,6.12 -0.5,2.21 -0.18,37.46 -0.18,41.51l0 42c-0.01,17.17 1.7,13.81 -7.21,13.81 -2.31,0 -4.63,0.01 -6.94,0.01l-42 0c-9.37,-0.01 -18.74,-0.01 -28.11,0 -12.68,0.01 -22.88,-1.46 -33.16,8.91 -9.9,9.98 -8.8,19.66 -8.8,33.16 0,5.34 -0.22,16.14 0.09,21.14 0.25,4.29 3.05,11.62 5.64,15.08 3.17,4.25 3.18,3.72 6.05,6.25l0.94 1z"/>
   <path class="fil2" d="M410.26 216.99c0.33,1.37 1.44,2.51 2.24,4.19 0.64,1.34 1.36,3.53 1.82,4.81 1.25,3.48 1.1,8.05 1.1,12.15 0,8.74 -0.01,17.47 0,26.21 0.01,8.43 -2.62,14.62 -6.61,19.56 -3.3,4.1 -11.18,10.03 -15.9,10.13 -2.02,2.1 -20.86,1.21 -25.12,1.23 -11.14,0.05 -76.5,-0.45 -78.07,0.23 -0.35,2.17 -0.1,21.36 -0.12,25.37l0.01 50.53c0,4.15 0.83,22.21 -1.48,24.13 0.03,4.41 -6.48,12.57 -10.54,15.74 -6.34,4.94 -12.48,6.16 -20.33,6.13 -8.83,-0.02 -17.68,-0.03 -26.52,0 -15.61,0.04 -16.71,-4.82 -20.4,-5.61 -0.68,0.63 -0.5,-0.62 -0.58,0.79 2.21,0.65 7.41,6.97 9.39,8.62l6.88 6.69c0.82,0.69 1.62,1.4 2.27,2.16 0.51,0.59 0.46,0.75 1.13,1.4l7.87 7.59c1.63,1.54 2.96,3.25 4.52,4.64l29.44 28.99c1.81,1.41 0.51,-0.16 2.25,2.13 1.16,1.53 3,3.1 4.54,4.65 0.48,0.49 0.59,0.61 1.14,1.09 1.1,0.96 0.54,0.78 1.84,1.65 0.58,0.39 1.24,0.52 0.8,1.71 47.63,-5.04 100.24,-30.57 134.27,-63.57 9.29,-9.01 15.35,-15.6 23.52,-25.72 14.35,-17.76 27.57,-41.15 35.64,-63.24 3.4,-9.31 9.84,-29.21 10.73,-38.93 -1.45,-0.94 -3.52,-3.31 -4.87,-4.7 -0.82,-0.85 -1.38,-1.45 -2.37,-2.36 -0.59,-0.55 -0.73,-0.63 -1.3,-1.22l-4.67 -4.81c-0.2,-0.17 -0.46,-0.39 -0.72,-0.58l-5.06 -5.31c-1.64,-1.87 -5,-4.45 -7.11,-7.09l-21.26 -21.4c-1.52,-1.68 -3.25,-3.3 -4.73,-4.73l-7.1 -7.1c-0.81,-0.86 -1.55,-1.63 -2.35,-2.41l-14.19 -13.74z"/>
   <path class="fil3" d="M198.6 392.61c-1.1,-4.8 -0.44,-17.85 -0.45,-23.74l0.03 -49.26c0,-3.9 0.24,-22.21 -0.11,-24.48 -3.04,-0.45 -81.84,-0.12 -88.9,-0.11 -5.33,0 -9.16,0.2 -14.12,-0.76 -5.28,-1.02 -9.05,-4.2 -10.39,-4.44 -0.89,-0.02 -0.36,-0.25 -0.81,0.15 1.46,0.55 22.74,22.15 24.8,24.16 3.24,3.14 14.09,14.45 16.9,16.87l7.44 7.42c0.66,0.64 0.96,1.05 1.55,1.6 3.59,3.28 7.58,7.71 10.65,10.51 4.13,3.79 8.01,7.89 12.28,12.03l6.21 6.12c1.06,1.14 2,1.92 3.03,2.96l7.84 7.64c1.65,1.91 1.45,1.07 2.33,2.08 2.64,3.02 1.22,1.12 2.28,2.15 0.76,0.73 0.27,1.06 1.29,1.86 1.2,0.93 1.28,0.28 1.66,1.17l3.49 0 0 1.58c0.26,-0.41 0.29,0.64 0.29,-0.92l5.05 0 0 1.26 5.09 0c0,-1.07 -0.08,-1.09 0.23,-1.99 1.25,-3.66 -0.33,-10.37 0.58,-13.08 0,3.55 -0.01,7.09 0,10.64 0,1.65 0.14,5.84 0.77,7.27 0.26,0.6 0.11,0.31 0.49,0.79l0.5 0.52z"/>
   <path class="fil3" d="M287.9 101.12c2.09,1.94 1.76,8.66 1.76,11.34 -0.01,4.32 -0.01,8.64 -0.01,12.95 0,8.43 -0.39,76.47 0.16,78.52 7.91,0.42 17.18,0.04 25.24,0 8.53,-0.03 17.06,0.02 25.58,-0.05l44.52 -0.06c1.4,-0.01 4.09,-0.16 5.37,0.5 0.59,0.31 0.32,0.14 0.7,0.5l0.53 -0.27c2.66,-0.54 4.8,1.77 6.87,1.71 -0.69,0.06 -1.2,-0.49 -1.76,-0.95 -0.31,-0.26 -0.6,-0.5 -0.84,-0.78 -2.26,-2.59 -1.12,-0.87 -2.49,-2.24l-4.36 -4.8c-1.06,-1.16 0.02,0.01 -2.33,-1.75 -1.46,-1.1 -0.92,-0.74 -1.69,-1.75l-2.23 -0.01c-0.06,-3.39 -0.12,-2.38 -1.96,-4.06 -0.72,-0.66 -0.67,-0.97 -1.47,-1.69l-7.86 -7.95c-1.21,-1.5 -1.85,-1.86 -3.13,-3.17 -1.44,-1.49 -0.91,-1.86 -2.87,-3.4l-9.45 -9.21c-2.7,-2.41 -3.29,-3.52 -4.65,-4.83l-1.36 -1.19c-0.05,-0.05 -0.11,-0.12 -0.16,-0.17l-9.72 -9.52c-2.19,-1.97 -4.02,-4.4 -6.2,-6.42l-25 -25.22c-6.08,-5.67 -16.98,-17.66 -21.98,-21.9 -0.78,-0.66 -0.75,-0.95 -1.44,-1.75 -1.34,-1.54 -1.28,-0.99 -1.46,-0.86 0.2,1.44 3.78,5.65 3.69,8.48z"/>
   <path class="fil4" d="M288.13 395.53c2.31,-1.92 1.48,-19.98 1.48,-24.13l-0.01 -50.53c0.02,-4.01 -0.23,-23.2 0.12,-25.37 1.57,-0.68 66.93,-0.18 78.07,-0.23 4.26,-0.02 23.1,0.87 25.12,-1.23 -2.14,0.06 -3.25,0.75 -5.86,0.74 -2.21,-0.01 -4.42,0 -6.63,0 -4.32,0.01 -8.63,-0.01 -12.95,-0.01 -8.73,0.02 -17.48,0.02 -26.21,0 -5.63,-0.01 -50.39,-0.44 -51.64,0.27 -0.41,0.3 -0.63,-0.5 -0.57,2.78 0.27,15.06 0.03,32.59 0.01,47.69 -0.02,8.42 0.01,16.84 0,25.26 -0.01,4.21 -0.01,8.42 0,12.63 0.01,9.29 -0.07,4.56 -0.93,12.13z"/>
   <path class="fil5" d="M391.22 204.82c-0.38,-0.36 -0.11,-0.19 -0.7,-0.5 -1.28,-0.66 -3.97,-0.51 -5.37,-0.5l-44.52 0.06c-8.52,0.07 -17.05,0.02 -25.58,0.05 -8.06,0.04 -17.33,0.42 -25.24,0 -0.55,-2.05 -0.16,-70.09 -0.16,-78.52 0,-4.31 0,-8.63 0.01,-12.95 0,-2.68 0.33,-9.4 -1.76,-11.34 1.36,5.88 1.25,5.13 1.25,11.98l0 87.78c-0.02,3.32 -0.46,3.65 3.16,3.6 15.73,-0.21 32.16,0.08 48,-0.03l44.53 -0.04c2.49,-0.01 4.22,0.35 6.38,0.41z"/>
  </g>
 </g>
</svg>
