<?xml version="1.0" encoding="UTF-8"?>
<!DOCTYPE svg PUBLIC "-//W3C//DTD SVG 1.1//EN" "http://www.w3.org/Graphics/SVG/1.1/DTD/svg11.dtd">
<!-- Creator: CorelDRAW 2021 (64-Bit) -->
<svg xmlns="http://www.w3.org/2000/svg" xml:space="preserve" width="300px" height="300px" version="1.1" style="shape-rendering:geometricPrecision; text-rendering:geometricPrecision; image-rendering:optimizeQuality; fill-rule:evenodd; clip-rule:evenodd"
viewBox="0 0 300 300"
 xmlns:xlink="http://www.w3.org/1999/xlink"
 xmlns:xodm="http://www.corel.com/coreldraw/odm/2003">
 <defs>
  <style type="text/css">
   <![CDATA[
    .fil0 {fill:#FEFEFE}
   ]]>
  </style>
 </defs>
 <g id="Capa_x0020_1">
  <metadata id="CorelCorpID_0Corel-Layer"/>
  <g id="_2042702392784">
   <path class="fil0" d="M105.15 91.34c1.71,-3.36 42.73,-44.15 45.25,-45.21l44.8 44.6c-1.15,4.06 -5.6,10.27 -7.63,14.02 -3.85,-1.74 -32.22,-32.82 -37.25,-36.24 -2.01,0.98 -15.96,14.86 -18.67,18.06 -1.96,2.31 -17.25,17.44 -19.19,18.27 -1.83,-5.04 -5.56,-8.63 -7.31,-13.5zm56.99 120.09c2.84,-3.36 5.93,-9.41 8.38,-13.7l60.46 -104.88c0.55,-2.61 -2.68,-4.67 -4.19,-6.22 -3.74,-3.85 -7.07,-7.21 -10.83,-11.04l-16.49 -16.32c-2.08,-1.93 -3.17,-3.43 -5.27,-5.65l-22.36 -21.99c-3.9,-3.43 -6.92,-7.86 -10.62,-11.26l-11.43 -10.37c-2,0.75 -20.09,19.75 -22.29,21.99 -7.46,7.62 -13.57,13.93 -21.64,22.1l-22.45 21.9c-18.26,18.19 -16.05,14.19 -9.75,24.66 3.95,6.57 60.81,106.83 64.49,110.86 0.62,-5.11 0.15,-39.61 0.15,-47.88 0,-9.24 1,-13.26 -3.21,-20.52 -2.4,-4.14 -7.61,-10.84 -8.52,-15.52 5.1,-3.66 20.23,-21.33 23.83,-22.69 3.09,2.22 3.67,3.47 5.72,5.63 1.92,2.02 4.07,3.67 5.97,5.58l11.45 11.68c-0.65,3.94 -6.54,11.78 -8.61,15.74 -4.05,7.72 -2.96,11.4 -3.04,20.71 -0.11,13.66 -1.34,34.26 0.25,47.19z"/>
   <path class="fil0" d="M237.68 289.15l0.31 -32.07c3.55,1.26 7.95,9.34 10.26,13.44 3.27,5.8 3.73,11.53 5.06,18.68l10.1 0.32c0.23,-15.86 -6.24,-20.92 -8.13,-28.69 1.63,-1.39 4.03,-2.64 6.16,-3.77 2.34,-1.24 4.12,-3.02 6.67,-3.06l0.38 35.21 9.85 0.26 0.03 -53.8c-1,0.85 -4.7,2.4 -6.38,3.38l-20.24 12.03c-4.13,2.36 -4.84,-0.64 -11.73,-6.96 -3.3,-3.01 -7.5,-6.87 -12.23,-8.51 -0.71,3.71 -0.06,38.09 -0.2,47.71 -0.09,5.92 -1.68,7.3 10.09,5.83z"/>
   <path class="fil0" d="M171.42 273.35l0.17 -25.83 19.96 -0.24c-1.34,9.28 -13.69,24.27 -20.13,26.07zm-10.11 16.47c9.74,-1.1 20.95,-12.04 24.33,-13.46 3.44,3.08 4.87,9.29 8.5,12.91l11.54 0.25c-1.07,-3.81 -4.9,-8.47 -6.92,-12.04 -4.66,-8.26 -6.58,-8.35 -4.37,-12.08 4.14,-6.98 10.13,-17.9 9.95,-28.16l-42.93 -0.22 -0.1 52.8z"/>
   <path class="fil0" d="M153.95 289.83l0.05 -35.64 -17.2 -0.16 0.02 10.41 6.94 -0.09 0.16 9.24c-6.22,-2.12 -18.4,-16.85 -20.04,-26.42l30 0.11 0.09 -10.04 -42.67 -0.31c-0.05,12.91 8.35,26.25 14.04,33.78 4.04,5.35 18.84,17.78 28.61,19.12z"/>
   <path class="fil0" d="M31.7 266.09l0.15 -18.55 16.58 -0.17c-2.44,6.04 -11,17.2 -16.73,18.72zm-10.07 23.54c3.18,-0.03 7.02,0.45 9.93,-0.54l0.45 -10.47c3.6,-2.39 7.71,-4.38 10.61,-7.11 2.87,-2.7 6.11,-6.05 8.86,-9.35 4.19,-4.99 10.68,-16.9 11.57,-25.22l-41.3 0.01 -0.12 52.68z"/>
   <polygon class="fil0" points="83.91,289.5 118.7,289.51 118.99,279.01 93.94,279.14 94,237.14 84.19,236.97 "/>
   <path class="fil0" d="M76.05 289.1c2.31,-9.36 0.29,-39.73 0.48,-51.61 -2.67,-0.86 -7.58,-0.82 -10.41,-0.3l-0.03 46.75c-0.07,2.8 -1.75,8.2 9.96,5.16z"/>
   <polygon class="fil0" points="210,289.25 220.22,289.49 220.19,237.21 210.03,236.99 "/>
  </g>
 </g>
</svg>
