<?xml version="1.0" encoding="UTF-8"?>
<!DOCTYPE svg PUBLIC "-//W3C//DTD SVG 1.1//EN" "http://www.w3.org/Graphics/SVG/1.1/DTD/svg11.dtd">
<!-- Creator: CorelDRAW 2021 (64-Bit) -->
<svg xmlns="http://www.w3.org/2000/svg" xml:space="preserve" width="35433px" height="35433px" version="1.1" style="shape-rendering:geometricPrecision; text-rendering:geometricPrecision; image-rendering:optimizeQuality; fill-rule:evenodd; clip-rule:evenodd"
viewBox="0 0 35433 35433"
 xmlns:xlink="http://www.w3.org/1999/xlink"
 xmlns:xodm="http://www.corel.com/coreldraw/odm/2003">
 <defs>
  <style type="text/css">
   <![CDATA[
    .fil0 {fill:#F5874F}
    .fil1 {fill:#E6E6E6}
   ]]>
  </style>
 </defs>
 <g id="Capa_x0020_1">
  <metadata id="CorelCorpID_0Corel-Layer"/>
  <path class="fil0" d="M16294.05 21278.31c243.07,-50.93 2137.62,-17.81 2649.04,-17.3 292.66,0.3 481.93,77.8 536.95,338.16 35.64,168.65 14.99,2311.54 14.59,2667.66 -0.32,292.61 -84.32,488.35 -339.38,536.67 -160.53,30.42 -2309.79,9.71 -2666.45,10.66 -290.49,0.77 -485.14,-79.2 -536.31,-335.5 -30.89,-154.69 -10.21,-2315.06 -11,-2666.29 -0.71,-311.05 78.79,-476.7 352.56,-534.06zm3196.5 -6245.8c0,-816.42 -1318.77,-1432.24 -2450.43,-1070.06 -350.32,112.12 -527.54,284.29 -752.65,497.01 -65.69,62.07 -100.5,107.26 -161.5,163.15 -235.19,215.49 -203.44,216.91 -374.32,411.96 -250.49,285.91 -537.48,843.79 -995.98,482.77 -302.36,-238.06 -1807.89,-1328.62 -1917.2,-1485.79 -205.46,-295.42 162.71,-721.74 389.15,-1034.2 288.65,-398.28 660.2,-808.82 1038.55,-1114.15 1055.88,-852.08 2255.94,-1266.98 3704.43,-1266.98 1163.64,0 2231.05,382.48 3135.27,1026.05 70.13,49.91 105.87,72.38 172.69,128.36l471.38 408.29c246.82,240.95 579.78,683.89 756.26,979.22 279.98,468.52 534.97,1141.17 534.97,1804.94 0,738.47 -242.93,1789.06 -728.58,2282.21 -38.47,39.07 -32.67,24.58 -70.03,68.57 -237.98,280.24 -646.03,612.52 -959.13,823.85 -238.54,161.01 -512.12,302.52 -759.28,443.65 -452.74,258.49 -972.1,825.4 -1027.93,1355.99 -46.76,444.45 -313.8,443.78 -738.8,444.58l-1457.94 -0.65c-723.67,-0.57 -1357.5,153.95 -1357.5,-488.98 0,-499.7 -24.27,-787.33 152.5,-1275.04 279.16,-770.18 1217.79,-1669.22 1963.29,-2017.26 720.08,-336.16 1432.78,-624.47 1432.78,-1567.49zm-12419.77 2306.28l0 756.35 111.55 1175.79c244.19,1884.78 997.98,3465 2093.38,4942.94l355.27 431.79c214.82,229.08 248.01,300.24 536.58,573.58 56.63,53.66 95.34,115.25 152.3,171.5l607.24 527.45c29.76,24.89 49.77,46.37 85.23,75.78l539.44 409.33c984.69,740.37 2305.45,1298.19 3486.33,1627.68 343.78,95.93 712.3,158.11 1062.41,209.57 171.1,25.16 1106.73,101.66 1155.19,121.67l838.51 0 1155.12 -107.99c1527.19,-243.32 2464.61,-558.24 3798.12,-1318.97 291.71,-166.41 533.46,-333.74 787.22,-507.74l1063.16 -857.05c538.56,-445.58 1109.1,-1146.94 1514.82,-1702.3 343.57,-470.28 683.13,-1051.37 947.62,-1622.05 1070.6,-2310.01 907.81,-3897.29 1001.02,-4127.83l0 -861.66c-115.21,-278.94 104.25,-2799.73 -1969.63,-5716.32 -94.31,-132.64 -187.31,-253.86 -278.56,-370.04l-358.56 -427.83c-222.79,-255.48 -429.92,-498.73 -693.07,-741.38l-878.35 -741.11c-443.71,-321.66 -657.75,-472.97 -1136.49,-760.93 -810.69,-487.64 -1762.65,-873.45 -2705.58,-1112.75 -328.18,-83.28 -716.07,-158.8 -1071.13,-203.56l-1152.56 -111 -779.5 0 -1175.39 111.23c-1749.79,257.51 -3165.4,844.37 -4581.24,1831.23l-553.6 417.47 -1459.07 1434.04c-478.86,639.52 -533.09,618.05 -1060.93,1507.32 -700.5,1180.14 -1137.06,2432.66 -1329.01,3810.66l-107.84 1155.13z"/>
  <path class="fil1" d="M19490.55 15032.51c0,943.02 -712.7,1231.33 -1432.78,1567.49 -745.5,348.04 -1684.13,1247.08 -1963.29,2017.26 -176.77,487.71 -152.5,775.34 -152.5,1275.04 0,642.93 633.83,488.41 1357.5,488.98l1457.94 0.65c425,-0.8 692.04,-0.13 738.8,-444.58 55.83,-530.59 575.19,-1097.5 1027.93,-1355.99 247.16,-141.13 520.74,-282.64 759.28,-443.65 313.1,-211.33 721.15,-543.61 959.13,-823.85 37.36,-43.99 31.56,-29.5 70.03,-68.57 485.65,-493.15 728.58,-1543.74 728.58,-2282.21 0,-663.77 -254.99,-1336.42 -534.97,-1804.94 -176.48,-295.33 -509.44,-738.27 -756.26,-979.22l-471.38 -408.29c-66.82,-55.98 -102.56,-78.45 -172.69,-128.36 -904.22,-643.57 -1971.63,-1026.05 -3135.27,-1026.05 -1448.49,0 -2648.55,414.9 -3704.43,1266.98 -378.35,305.33 -749.9,715.87 -1038.55,1114.15 -226.44,312.46 -594.61,738.78 -389.15,1034.2 109.31,157.17 1614.84,1247.73 1917.2,1485.79 458.5,361.02 745.49,-196.86 995.98,-482.77 170.88,-195.05 139.13,-196.47 374.32,-411.96 61,-55.89 95.81,-101.08 161.5,-163.15 225.11,-212.72 402.33,-384.89 752.65,-497.01 1131.66,-362.18 2450.43,253.64 2450.43,1070.06z"/>
  <path class="fil1" d="M16294.05 21278.31c-273.77,57.36 -353.27,223.01 -352.56,534.06 0.79,351.23 -19.89,2511.6 11,2666.29 51.17,256.3 245.82,336.27 536.31,335.5 356.66,-0.95 2505.92,19.76 2666.45,-10.66 255.06,-48.32 339.06,-244.06 339.38,-536.67 0.4,-356.12 21.05,-2499.01 -14.59,-2667.66 -55.02,-260.36 -244.29,-337.86 -536.95,-338.16 -511.42,-0.51 -2405.97,-33.63 -2649.04,17.3z"/>
 </g>
</svg>
