<?xml version="1.0" encoding="UTF-8"?>
<!DOCTYPE svg PUBLIC "-//W3C//DTD SVG 1.1//EN" "http://www.w3.org/Graphics/SVG/1.1/DTD/svg11.dtd">
<!-- Creator: CorelDRAW 2021 (64-Bit) -->
<svg xmlns="http://www.w3.org/2000/svg" xml:space="preserve" width="300px" height="300px" version="1.1" style="shape-rendering:geometricPrecision; text-rendering:geometricPrecision; image-rendering:optimizeQuality; fill-rule:evenodd; clip-rule:evenodd"
viewBox="0 0 300 300"
 xmlns:xlink="http://www.w3.org/1999/xlink"
 xmlns:xodm="http://www.corel.com/coreldraw/odm/2003">
 <defs>
  <style type="text/css">
   <![CDATA[
    .fil0 {fill:#FEFEFE}
   ]]>
  </style>
 </defs>
 <g id="Capa_x0020_1">
  <metadata id="CorelCorpID_0Corel-Layer"/>
  <g id="_2042453509952">
   <path class="fil0" d="M164.77 153.04l-0.03 13.5 13 -0.06 0.17 -14.82 19.16 -0.12 7.7 15.85 15.88 0.03c-0.51,-3.76 -6.98,-12.98 -8.82,-17.17 0.82,-1.4 -0.01,-0.24 1.16,-1.54 3.27,-3.64 6.45,-6.01 7.01,-13.46 0.62,-8.33 -2.04,-13.4 -6.37,-17.1 -5.41,-4.62 -11.71,-3.71 -19.62,-3.89 -5.52,-0.12 -18.66,-1 -23.33,-0.11 -1.18,1.77 -5.17,10.07 -5.44,12.3 8.35,0.17 16.69,0.23 25.03,0.42 6.84,0.16 17,-0.88 16.61,7.14 -0.39,8.06 -10.28,6.41 -17.85,6.39 -7.57,-0.01 -16.7,-0.46 -24.18,0.06l-0.08 12.58z"/>
   <path class="fil0" d="M67.72 166.44c2.03,1.89 16.52,0.93 19.24,0.94 6.44,0.01 13.56,0.32 19.91,-0.05 1.82,-2.07 5.45,-9.82 6.46,-12.38l-32.43 0 0.12 -7.35 23.36 -0.14c1.96,-2.15 4.76,-8.12 5.61,-10.9 -0.21,-1.38 0.55,-0.36 -1.28,-0.84 -2.36,-0.62 -27.5,0.01 -27.99,0.1l-0.04 -8.8 27.19 -0.16c1.15,-1.53 6.36,-11.86 6.7,-13.31l-47.05 0.09 0.2 52.8z"/>
   <path class="fil0" d="M224.41 167.54l14.42 -0.07c3.47,-4.18 14.6,-28.33 19.28,-33.82 1.86,1.56 8.48,16.75 9.15,20.12 -16.97,0.08 -14.14,-1.71 -18.58,6.35 -1.13,2.05 -3.13,4.94 -3.59,7.39l44.91 0.06c-0.62,-3.6 -11.65,-23.98 -14.13,-28.89 -11.58,-22.96 -16.45,-35.58 -28.89,-13.88 -4.22,7.36 -22.11,38.64 -22.57,42.74z"/>
   <path class="fil0" d="M13.31 123.31l-1.03 3.71 17.64 0.28 -0.21 21.12 -0.22 18.92 12.04 -0.03 0.41 -39.98 13.99 -0.17 6.98 -12.67 -0.99 -0.3c-0.16,-0.04 -0.34,-0.09 -0.53,-0.12 -1.51,-0.25 0.36,-0.01 -1.16,-0.13 -6.55,-0.5 -40.08,-0.56 -41.11,0.24 -0.92,0.71 -3.43,7.55 -5.81,9.13z"/>
   <path class="fil0" d="M131.79 129.71l-0.02 0.24 -0.47 37.45c2.98,0.01 9.81,0.42 12.15,-0.6l0.32 -39.3 14.03 -0.38c1.6,-2.85 6.6,-10.94 6.54,-13.7 -3.56,1.55 -36.05,0.11 -43.11,0.27 -1.85,2.97 -6.26,10.15 -7.32,13.38l17.24 0.18c0.89,1.08 0.63,-0.29 0.64,2.46z"/>
   <path class="fil0" d="M171.33 177.89l-1.41 4.46 114.16 0c1.28,-1.79 3.37,-5.04 4.1,-7.39l-104.75 -0.01c-11.4,0 -8.44,-0.82 -11.16,2.12 -0.94,1 0.13,0.26 -0.94,0.82z"/>
   <path class="fil0" d="M108.03 182.35c1.44,-1.88 2.93,-4.75 3.57,-7.4l-97.46 -0.01c-2.02,1.05 -3.82,5.2 -4.14,7.41l98.03 0z"/>
   <path class="fil0" d="M141.73 186.58c1.93,-0.79 1.03,0.07 1.55,-2.05l0.02 -7.39c3.3,3.16 3.39,9.54 8.38,9.31 0.93,-2.09 1,-13.46 0.01,-15.66l-1.87 -0.05c-0.57,0.82 -0.27,0.06 -0.59,1.41 -0.41,1.66 0.01,-0.71 -0.18,1.11l-0.16 7.24c-0.43,-1.4 -2.32,-4.05 -3.15,-5.63 -1.6,-3.07 -1.36,-4.12 -5.42,-4.12 -0.22,2.91 -0.09,5.83 -0.12,8.76 -0.08,9.26 -0.34,6.25 1.53,7.07z"/>
   <path class="fil0" d="M166.3 170.92l-11.51 -0.04 0.17 15.41c2.02,0.22 4.07,0.2 6.1,0.21 3.44,0.02 3.5,0.65 4.75,-2.02 -1.77,-1.2 -1.88,-0.88 -4.19,-0.95 -1.72,-0.06 -1.99,0.22 -3.75,-0.29l0.11 -2.72 6.38 -0.16 0.71 -3.03c-6.16,-0.22 -7.15,1.09 -7.41,-1.56 -0.28,-2.95 1.37,-1.65 7.28,-1.75l1.36 -3.1z"/>
   <path class="fil0" d="M128.97 183.54l-7.69 -0.27c0,-2.3 -0.02,-4.59 0.01,-6.89 0.01,-0.81 0.08,-2.4 0.02,-3.13l-0.74 -2.49 -2.76 -0.02 0.06 15.83 10.26 -0.06 0.84 -2.97z"/>
   <path class="fil0" d="M131.81 186.49l3.07 -0.05c1.33,-3.29 0.44,-11.33 0.42,-15.6l-3.49 0.02 0 15.63z"/>
  </g>
 </g>
</svg>
